<svg width="694" height="75" viewBox="0 0 694 75" fill="none" xmlns="http://www.w3.org/2000/svg">
<path d="M23.48 19.912L38.936 55.048H40.376L54.584 19.912H74.648L88.856 55.048H90.296L105.752 19.912H128.312L103.928 73H75.416L64.568 43.528L53.72 73H25.208L0.92 19.912H23.48ZM152.733 50.248C153.821 53 156.093 55.112 159.549 56.584C163.069 57.992 167.837 58.696 173.853 58.696C177.501 58.696 181.181 58.44 184.893 57.928C188.605 57.416 191.997 56.872 195.069 56.296C198.589 55.592 202.013 54.792 205.341 53.896V70.216C202.589 71.048 199.581 71.784 196.317 72.424C193.501 73 190.237 73.512 186.525 73.96C182.877 74.472 178.973 74.728 174.813 74.728C167.837 74.728 161.533 74.152 155.901 73C150.269 71.784 145.469 70.024 141.501 67.72C137.597 65.352 134.589 62.44 132.477 58.984C130.365 55.528 129.309 51.56 129.309 47.08C129.309 42.536 130.269 38.568 132.189 35.176C134.109 31.72 136.861 28.84 140.445 26.536C144.029 24.168 148.413 22.408 153.597 21.256C158.781 20.04 164.637 19.432 171.165 19.432C177.117 19.432 182.141 19.976 186.237 21.064C190.397 22.152 193.821 23.592 196.509 25.384C199.261 27.112 201.405 29.064 202.941 31.24C204.541 33.416 205.693 35.592 206.397 37.768C207.165 39.944 207.645 41.992 207.837 43.912C208.029 45.832 208.125 47.4 208.125 48.616V50.248H152.733ZM167.133 35.368C162.781 35.368 159.421 36.104 157.053 37.576C154.685 38.984 153.149 40.808 152.445 43.048H182.109C181.853 41.896 181.405 40.872 180.765 39.976C180.125 39.016 179.229 38.216 178.077 37.576C176.925 36.872 175.453 36.328 173.661 35.944C171.869 35.56 169.693 35.368 167.133 35.368ZM217.291 0.903996H239.851V26.248C242.923 24.008 246.507 22.312 250.603 21.16C254.763 20.008 259.371 19.432 264.427 19.432C269.995 19.432 275.115 20.04 279.787 21.256C284.523 22.408 288.587 24.168 291.979 26.536C295.371 28.84 297.995 31.72 299.851 35.176C301.771 38.568 302.731 42.536 302.731 47.08C302.731 51.56 301.803 55.528 299.947 58.984C298.155 62.44 295.595 65.32 292.267 67.624C289.003 69.928 285.035 71.688 280.363 72.904C275.755 74.056 270.667 74.632 265.099 74.632C260.427 74.632 256.587 74.12 253.579 73.096C250.571 72.136 248.203 71.048 246.475 69.832C244.491 68.424 242.987 66.824 241.963 65.032H239.851L242.059 73H217.291V0.903996ZM239.851 47.08C239.851 51.176 241.515 54.152 244.843 56.008C248.235 57.864 253.131 58.792 259.531 58.792C265.931 58.792 270.795 57.864 274.123 56.008C277.515 54.152 279.211 51.176 279.211 47.08C279.211 42.984 277.515 40.008 274.123 38.152C270.795 36.296 265.931 35.368 259.531 35.368C253.131 35.368 248.235 36.296 244.843 38.152C241.515 40.008 239.851 42.984 239.851 47.08ZM311.874 36.808C311.874 33.992 312.834 31.528 314.754 29.416C316.738 27.24 319.554 25.416 323.202 23.944C326.85 22.472 331.266 21.352 336.45 20.584C341.698 19.816 347.586 19.432 354.114 19.432C357.314 19.432 360.642 19.592 364.098 19.912C367.554 20.168 370.754 20.488 373.698 20.872C377.09 21.32 380.45 21.8 383.778 22.312V38.056C380.834 37.544 377.73 37.096 374.466 36.712C371.586 36.392 368.386 36.104 364.866 35.848C361.346 35.528 357.762 35.368 354.114 35.368C351.234 35.368 348.578 35.368 346.146 35.368C343.778 35.368 341.73 35.432 340.002 35.56C338.338 35.688 337.026 35.944 336.066 36.328C335.17 36.648 334.722 37.16 334.722 37.864C334.722 38.632 335.458 39.176 336.93 39.496C338.466 39.752 340.45 39.944 342.882 40.072C345.378 40.2 348.194 40.296 351.33 40.36C354.53 40.36 357.762 40.488 361.026 40.744C364.29 41 367.49 41.416 370.626 41.992C373.826 42.504 376.642 43.304 379.074 44.392C381.57 45.48 383.554 46.92 385.026 48.712C386.562 50.504 387.33 52.776 387.33 55.528C387.33 58.664 386.338 61.416 384.354 63.784C382.434 66.152 379.65 68.168 376.002 69.832C372.354 71.432 367.906 72.648 362.658 73.48C357.474 74.312 351.618 74.728 345.09 74.728C340.93 74.728 336.866 74.472 332.898 73.96C328.994 73.512 325.474 73 322.338 72.424C318.626 71.784 315.138 71.048 311.874 70.216V53.8C315.01 54.696 318.37 55.496 321.954 56.2C325.026 56.84 328.546 57.416 332.514 57.928C336.546 58.44 340.738 58.696 345.09 58.696C347.97 58.696 350.594 58.696 352.962 58.696C355.394 58.632 357.442 58.504 359.106 58.312C360.77 58.12 362.05 57.832 362.946 57.448C363.906 57 364.386 56.392 364.386 55.624C364.386 54.792 363.618 54.216 362.082 53.896C360.61 53.512 358.626 53.288 356.13 53.224C353.698 53.096 350.914 53 347.778 52.936C344.642 52.872 341.41 52.744 338.082 52.552C334.818 52.296 331.618 51.88 328.482 51.304C325.346 50.728 322.53 49.864 320.034 48.712C317.602 47.56 315.618 46.024 314.082 44.104C312.61 42.184 311.874 39.752 311.874 36.808ZM397.854 0.903996H420.414V73H397.854V0.903996ZM453.483 50.248C454.571 53 456.843 55.112 460.299 56.584C463.819 57.992 468.587 58.696 474.603 58.696C478.251 58.696 481.931 58.44 485.643 57.928C489.355 57.416 492.747 56.872 495.819 56.296C499.339 55.592 502.763 54.792 506.091 53.896V70.216C503.339 71.048 500.331 71.784 497.067 72.424C494.251 73 490.987 73.512 487.275 73.96C483.627 74.472 479.723 74.728 475.563 74.728C468.587 74.728 462.283 74.152 456.651 73C451.019 71.784 446.219 70.024 442.251 67.72C438.347 65.352 435.339 62.44 433.227 58.984C431.115 55.528 430.059 51.56 430.059 47.08C430.059 42.536 431.019 38.568 432.939 35.176C434.859 31.72 437.611 28.84 441.195 26.536C444.779 24.168 449.163 22.408 454.347 21.256C459.531 20.04 465.387 19.432 471.915 19.432C477.867 19.432 482.891 19.976 486.987 21.064C491.147 22.152 494.571 23.592 497.259 25.384C500.011 27.112 502.155 29.064 503.691 31.24C505.291 33.416 506.443 35.592 507.147 37.768C507.915 39.944 508.395 41.992 508.587 43.912C508.779 45.832 508.875 47.4 508.875 48.616V50.248H453.483ZM467.883 35.368C463.531 35.368 460.171 36.104 457.803 37.576C455.435 38.984 453.899 40.808 453.195 43.048H482.859C482.603 41.896 482.155 40.872 481.515 39.976C480.875 39.016 479.979 38.216 478.827 37.576C477.675 36.872 476.203 36.328 474.411 35.944C472.619 35.56 470.443 35.368 467.883 35.368ZM571.225 73L573.529 63.88H571.321C570.041 65.928 568.153 67.752 565.657 69.352C563.545 70.696 560.633 71.944 556.921 73.096C553.273 74.248 548.537 74.824 542.713 74.824C539.449 74.824 536.281 74.536 533.209 73.96C530.137 73.448 527.385 72.584 524.953 71.368C522.585 70.152 520.665 68.584 519.193 66.664C517.785 64.744 517.081 62.408 517.081 59.656C517.081 57.096 517.625 54.792 518.713 52.744C519.801 50.696 521.593 48.968 524.089 47.56C526.585 46.152 529.849 45.096 533.881 44.392C537.913 43.624 542.873 43.24 548.761 43.24C551.385 43.176 554.073 43.144 556.825 43.144C559.193 43.08 561.753 43.048 564.505 43.048C567.321 43.048 570.009 43.048 572.569 43.048C571.865 41.576 570.777 40.36 569.305 39.4C567.897 38.376 566.201 37.576 564.217 37C562.233 36.424 560.057 36.008 557.689 35.752C555.385 35.496 552.985 35.368 550.489 35.368C547.993 35.368 545.465 35.464 542.905 35.656C540.409 35.848 538.041 36.072 535.801 36.328C533.625 36.584 531.609 36.872 529.753 37.192C527.961 37.512 526.521 37.768 525.433 37.96V22.312C528.121 21.8 531.001 21.32 534.073 20.872C536.761 20.552 539.801 20.264 543.193 20.008C546.585 19.688 550.201 19.528 554.041 19.528C559.033 19.528 564.089 19.912 569.209 20.68C574.393 21.384 579.065 22.76 583.225 24.808C587.385 26.856 590.777 29.672 593.401 33.256C596.025 36.776 597.337 41.384 597.337 47.08V73H571.225ZM573.529 49.384H553.945C548.505 49.384 544.473 49.672 541.849 50.248C539.289 50.76 538.009 51.848 538.009 53.512C538.009 54.408 538.329 55.176 538.969 55.816C539.673 56.456 540.601 57 541.753 57.448C542.969 57.832 544.345 58.12 545.881 58.312C547.481 58.504 549.145 58.6 550.873 58.6C553.433 58.6 556.025 58.408 558.649 58.024C561.337 57.576 563.769 56.968 565.945 56.2C568.185 55.432 570.009 54.472 571.417 53.32C572.825 52.168 573.529 50.856 573.529 49.384ZM608.51 0.903996H631.07V41.032L660.446 20.2H690.59L656.702 43.816L693.47 73H663.326L631.07 46.792V73H608.51V0.903996Z" fill="white"/>
</svg>
