<svg xmlns="http://www.w3.org/2000/svg" viewBox="0 0 153.17 47.16"><defs><style>.cls-1{fill:#3fde74;}</style></defs><g id="Layer_2" data-name="Layer 2"><g id="Layer_2-2" data-name="Layer 2"><path class="cls-1" d="M4.07,46.07,0,13.83A1.1,1.1,0,0,1,1.1,12.59H6a1.1,1.1,0,0,1,1.1,1.05v.13a1.1,1.1,0,0,0,2.2,0v-.13a1.1,1.1,0,0,1,1.1-1.05h5.12a1.09,1.09,0,0,1,1.1,1.05v.13a1.1,1.1,0,0,0,2.2,0v-.13A1.09,1.09,0,0,1,20,12.59h4.93A1.1,1.1,0,0,1,26,13.82L22,46.06A1.11,1.11,0,0,1,21,47H15.26A1.1,1.1,0,0,1,14.16,46h0A1.11,1.11,0,0,0,12,46h0A1.09,1.09,0,0,1,10.85,47H5.16A1.1,1.1,0,0,1,4.07,46.07Z"/><path class="cls-1" d="M64.72,36.47c-.58-5.62,1.4-18.23-1.34-22.65-1.7-1.8-7.07-2.05-8.25.64V.05L47.9,0V47h5.94c0-.1.78-3.12.81-3.22.57,3,2.86,3.44,5.41,3.22C65.72,46.37,64.4,43.14,64.72,36.47ZM55.08,21.74c.22-2.06-.31-7.53,1.9-5.86.81,4,.32,13.78.45,18.56-.36,3,.9,10.13-1.68,9C54.48,40,55.31,25.74,55.08,21.74Z"/><path class="cls-1" d="M74.83,34.76c.06,3.27,0,6.6.59,8.87.25.67.91.68,1.18,0,.55-2.06.49-4.43.53-7.5a9.16,9.16,0,0,0-.91-4.56c-.59-1.42-5.5-3.59-6.8-4.74-1.73-1.77-1.67-3.87-1.77-6.93.21-3.33,0-5.25,2.95-6.59,2.35-.89,8-1.26,10.68.1a4.28,4.28,0,0,1,2.26,3A34.57,34.57,0,0,1,85,23.66a1.65,1.65,0,0,1-2.3,1.56L78.79,23a2.35,2.35,0,0,1-1.55-2.36c-.1-1.57.07-6.53-1.79-4.79-.76,1.85-1,6.77.4,8.43.57,1,4.92,3.51,6.13,4.24,2.36,1.64,2.5,4.06,2.44,7.12,0,1.11-.06,3.91-.06,4.93-.09,6-2.62,6.28-8.41,6.48-3.91.11-6.76-.41-7.68-4.61A31.71,31.71,0,0,1,67,33V32a1.76,1.76,0,0,1,2.42-1.63l3.77,2.11A2.32,2.32,0,0,1,74.83,34.76Z"/><path class="cls-1" d="M87.43,47V0h7.23V47Z"/><path class="cls-1" d="M113.23,35.22a2.53,2.53,0,0,0-2.4-.19l-2.65,1.39A2.76,2.76,0,0,0,106.57,39,15,15,0,0,1,106,44a.3.3,0,0,1-.08.08l-.07,0a.8.8,0,0,1-.92-.12,14.06,14.06,0,0,1-.59-4.55c.14-2.11.6-3.32,2-4.47A17.94,17.94,0,0,1,109,33.26c.11,0,.29-.16.41-.21l.19-.1,0,0,.15,0a8.08,8.08,0,0,0,3.32-2.46c1-1.34.74-8,.67-10-.19-3.78-.69-7.2-5-7.71-2.56-.17-6.51-.52-8.86.64a4.19,4.19,0,0,0-.42.24c-3,2-2.3,7.8-2.48,11.55L97,34.44a42.08,42.08,0,0,0,.49,8.11c.39,2.69,2.13,4,4.63,4.31,2.66.2,6.69.58,9.11-.91l.06,0a1.07,1.07,0,0,0,.19-.13,7.22,7.22,0,0,0,1.47-3.34.08.08,0,0,1,0,0c.35-1.44.93-3.64,1.24-5.07v0A1.91,1.91,0,0,0,113.23,35.22Zm-8.9-10.09c.08-4.06-.06-6.71.54-9.27a.71.71,0,0,1,1.29,0c.68,2.72.48,7.46.53,11.44a13.29,13.29,0,0,1-.48,3.8c-.37,1.4-1.42,2.08-1.88,3.16Z"/><path class="cls-1" d="M44.58,35.22a2.53,2.53,0,0,0-2.4-.19l-2.65,1.39A2.76,2.76,0,0,0,37.92,39,15.6,15.6,0,0,1,37.33,44a.3.3,0,0,1-.08.08l-.07,0a.79.79,0,0,1-.92-.12,13.53,13.53,0,0,1-.59-4.55c.14-2.11.6-3.32,2-4.47a17.44,17.44,0,0,1,2.68-1.69c.1,0,.28-.16.41-.21L41,33l0,0,.15,0a8.22,8.22,0,0,0,3.32-2.46c1-1.34.74-8,.67-10-.2-3.78-.7-7.2-5-7.71-2.56-.17-6.51-.52-8.86.64a4.19,4.19,0,0,0-.42.24c-3,2-2.31,7.8-2.48,11.55l-.06,9.27a40.54,40.54,0,0,0,.49,8.11c.38,2.69,2.12,4,4.63,4.31,2.65.2,6.69.58,9.11-.91l.06,0a1.07,1.07,0,0,0,.19-.13,7.43,7.43,0,0,0,1.47-3.34.08.08,0,0,1,0,0c.34-1.44.93-3.64,1.24-5.07v0A1.91,1.91,0,0,0,44.58,35.22Zm-8.9-10.09c.07-4.06-.07-6.71.54-9.27a.71.71,0,0,1,1.29,0c.68,2.72.47,7.46.53,11.44a13.29,13.29,0,0,1-.48,3.8c-.38,1.4-1.43,2.08-1.88,3.16Z"/><path class="cls-1" d="M133.72,20.62a20.62,20.62,0,0,0-.4-3.35,6.23,6.23,0,0,0-.83-2.3A4.4,4.4,0,0,0,131,13.68a6.29,6.29,0,0,0-2.28-.72c-.56-.07-1.24-.12-2-.14l-1.41,0H124l-1.08,0h-.08a6.06,6.06,0,0,0-1.88.4,13.88,13.88,0,0,0-1.4.62,2.33,2.33,0,0,0-.91,1.12,11.43,11.43,0,0,0-.59,1.53c-.1.36-.23.93-.42,1.66v0c0,.16-.08.33-.13.51-.25,1-.72,2.84-.92,3.77v0a1.88,1.88,0,0,0,.86,2,2.73,2.73,0,0,0,.73.35,2.39,2.39,0,0,0,1.76-.1l2.65-1.39a2.76,2.76,0,0,0,1.61-2.62,26.81,26.81,0,0,1,.24-3.54,4.21,4.21,0,0,1,.35-1.39.34.34,0,0,1,.16-.13.78.78,0,0,1,.37-.08.65.65,0,0,1,.54.21,4.38,4.38,0,0,1,.35,1.29,25.67,25.67,0,0,1,.24,3.26,6.17,6.17,0,0,1-1.07,3.51,10,10,0,0,1-3.15,2.37c-.16.1-.33.19-.5.28l-.26.14-.15.07-.26.13-.13,0-.55.28-.62.33a6,6,0,0,0-2.15,1.85c-.5.82-.75,2.55-.75,5.2,0,2,0,3.59.08,4.77a21.81,21.81,0,0,0,.4,3.34,7.83,7.83,0,0,0,.75,2.33c.32.54,1.91,2.12,3.34,2.12h2a3.24,3.24,0,0,0,2-.72,4.79,4.79,0,0,0,1.36-2.49l0,.11.36,1.45.42,1.66h6.18V45.53c0-3,0-9.36,0-10.88V25.38C133.73,23.38,133.78,21.8,133.72,20.62Zm-7.36,18.27a27.47,27.47,0,0,1-.32,3.4,3.23,3.23,0,0,1-.43,1.37.8.8,0,0,1-.59.21.62.62,0,0,1-.53-.21,3.9,3.9,0,0,1-.3-1.37q-.14-1.15-.18-3.51V32.57a13.28,13.28,0,0,1,.48-3.83,5.36,5.36,0,0,1,1-1.93,3.84,3.84,0,0,0,.83-1.26Z"/><path class="cls-1" d="M149.89,12.69c4.85.27,3.38,8.69,1.56,10.9-1.46,1.49-7.33,2.78-7.31,5C156.35,24,152.06,39.72,152.81,47h-7.28c.77-21.78-2.89-21.65-2.25,0h-7.23V0h7.23V25.76C148.5,23.26,142.06,12.35,149.89,12.69Z"/></g></g></svg>